<svg xmlns="http://www.w3.org/2000/svg" viewBox="0 0 544 534" width="100%" height="auto">
  <defs>
    <linearGradient id="goldGrad" x1="0%" y1="0%" x2="100%" y2="100%">
      <stop offset="0%" stop-color="#F2E2BE" />
      <stop offset="30%" stop-color="#D8B772" />
      <stop offset="70%" stop-color="#C5A059" />
      <stop offset="100%" stop-color="#9E7B35" />
    </linearGradient>
    <filter id="glow" x="-15%" y="-15%" width="130%" height="130%">
      <feDropShadow dx="0" dy="2" stdDeviation="5" flood-color="#C5A059" flood-opacity="0.35" />
    </filter>
  </defs>
  <path d="M 270.0 16.0 L 245.0 31.0 L 212.0 53.0 L 198.0 64.0 L 185.0 76.0 L 176.0 86.0 L 164.0 103.0 L 158.0 115.0 L 155.0 124.0 L 153.0 134.0 L 153.0 159.0 L 156.0 174.0 L 160.0 186.0 L 167.0 200.0 L 180.0 217.0 L 193.0 229.0 L 209.0 240.0 L 228.0 249.0 L 250.0 255.0 L 275.0 257.0 L 294.0 255.0 L 316.0 249.0 L 335.0 240.0 L 346.0 233.0 L 356.0 225.0 L 364.0 217.0 L 372.0 207.0 L 378.0 198.0 L 383.0 188.0 L 390.0 166.0 L 392.0 144.0 L 390.0 130.0 L 385.0 114.0 L 377.0 98.0 L 362.0 79.0 L 345.0 63.0 L 328.0 50.0 L 283.0 21.0 L 273.0 16.0 Z M 284.0 41.0 L 306.0 58.0 L 330.0 79.0 L 343.0 93.0 L 350.0 102.0 L 356.0 111.0 L 362.0 123.0 L 365.0 132.0 L 367.0 142.0 L 367.0 153.0 L 366.0 161.0 L 363.0 173.0 L 356.0 188.0 L 345.0 203.0 L 338.0 210.0 L 328.0 218.0 L 310.0 228.0 L 292.0 234.0 L 279.0 236.0 L 263.0 236.0 L 255.0 235.0 L 234.0 229.0 L 223.0 224.0 L 208.0 214.0 L 192.0 198.0 L 186.0 189.0 L 181.0 179.0 L 179.0 173.0 L 176.0 160.0 L 175.0 150.0 L 176.0 135.0 L 179.0 124.0 L 185.0 112.0 L 192.0 102.0 L 199.0 94.0 L 210.0 84.0 L 218.0 78.0 L 243.0 62.0 L 280.0 42.0 Z M 287.0 68.0 L 282.0 69.0 L 247.0 86.0 L 229.0 98.0 L 223.0 103.0 L 213.0 114.0 L 208.0 123.0 L 204.0 136.0 L 203.0 143.0 L 204.0 159.0 L 209.0 175.0 L 216.0 187.0 L 225.0 197.0 L 236.0 205.0 L 244.0 209.0 L 257.0 213.0 L 263.0 214.0 L 278.0 214.0 L 285.0 213.0 L 295.0 210.0 L 307.0 204.0 L 315.0 198.0 L 325.0 187.0 L 332.0 175.0 L 336.0 162.0 L 337.0 156.0 L 337.0 144.0 L 333.0 129.0 L 325.0 113.0 L 310.0 92.0 L 297.0 77.0 L 289.0 69.0 Z M 289.0 97.0 L 291.0 99.0 L 301.0 115.0 L 310.0 133.0 L 314.0 146.0 L 314.0 160.0 L 313.0 164.0 L 309.0 172.0 L 306.0 176.0 L 298.0 184.0 L 288.0 190.0 L 278.0 193.0 L 264.0 193.0 L 254.0 190.0 L 245.0 185.0 L 235.0 175.0 L 229.0 165.0 L 226.0 155.0 L 226.0 139.0 L 228.0 132.0 L 231.0 126.0 L 239.0 118.0 L 245.0 114.0 L 266.0 104.0 L 285.0 97.0 Z M 276.0 127.0 L 272.0 127.0 L 268.0 131.0 L 261.0 135.0 L 254.0 142.0 L 253.0 144.0 L 253.0 152.0 L 255.0 156.0 L 261.0 162.0 L 268.0 165.0 L 276.0 165.0 L 279.0 164.0 L 284.0 161.0 L 288.0 155.0 L 288.0 146.0 L 287.0 143.0 L 281.0 132.0 Z M 432.0 325.0 L 433.0 428.0 L 450.0 427.0 L 451.0 389.0 L 474.0 413.0 L 486.0 424.0 L 494.0 428.0 L 498.0 429.0 L 513.0 429.0 L 522.0 425.0 L 526.0 420.0 L 528.0 414.0 L 528.0 406.0 L 526.0 401.0 L 509.0 403.0 L 511.0 408.0 L 511.0 411.0 L 510.0 413.0 L 508.0 415.0 L 504.0 416.0 L 498.0 414.0 L 481.0 397.0 L 476.0 388.0 L 488.0 386.0 L 496.0 382.0 L 503.0 375.0 L 507.0 366.0 L 508.0 353.0 L 506.0 344.0 L 502.0 337.0 L 495.0 331.0 L 483.0 326.0 L 477.0 325.0 Z M 451.0 340.0 L 476.0 340.0 L 483.0 343.0 L 487.0 347.0 L 489.0 351.0 L 489.0 362.0 L 488.0 365.0 L 481.0 372.0 L 476.0 374.0 L 450.0 373.0 Z M 333.0 325.0 L 333.0 398.0 L 335.0 406.0 L 339.0 414.0 L 350.0 424.0 L 356.0 427.0 L 364.0 429.0 L 383.0 429.0 L 388.0 428.0 L 396.0 425.0 L 402.0 421.0 L 409.0 413.0 L 411.0 409.0 L 414.0 398.0 L 414.0 325.0 L 396.0 325.0 L 396.0 397.0 L 395.0 401.0 L 392.0 407.0 L 388.0 411.0 L 382.0 414.0 L 377.0 415.0 L 369.0 415.0 L 360.0 412.0 L 353.0 405.0 L 351.0 401.0 L 349.0 393.0 L 349.0 325.0 Z M 242.0 326.0 L 243.0 340.0 L 294.0 341.0 L 240.0 415.0 L 241.0 428.0 L 317.0 427.0 L 316.0 413.0 L 261.0 411.0 L 314.0 339.0 L 316.0 335.0 L 315.0 325.0 Z M 132.0 326.0 L 133.0 428.0 L 150.0 427.0 L 149.0 361.0 L 152.0 357.0 L 156.0 364.0 L 175.0 390.0 L 199.0 425.0 L 199.0 426.0 L 202.0 428.0 L 218.0 428.0 L 219.0 426.0 L 218.0 425.0 L 218.0 325.0 L 201.0 326.0 L 202.0 394.0 L 200.0 397.0 L 192.0 387.0 L 169.0 352.0 L 161.0 342.0 L 151.0 326.0 Z M 57.0 326.0 L 27.0 402.0 L 16.0 427.0 L 34.0 427.0 L 34.0 425.0 L 41.0 410.0 L 43.0 403.0 L 89.0 403.0 L 98.0 426.0 L 100.0 428.0 L 119.0 427.0 L 91.0 363.0 L 87.0 351.0 L 76.0 325.0 Z M 65.0 347.0 L 67.0 349.0 L 72.0 365.0 L 80.0 383.0 L 80.0 388.0 L 50.0 387.0 L 50.0 385.0 L 54.0 377.0 L 62.0 355.0 L 63.0 349.0 Z M 427.0 495.0 L 428.0 498.0 L 437.0 499.0 L 438.0 518.0 L 440.0 518.0 L 441.0 498.0 L 444.0 497.0 L 448.0 498.0 L 450.0 497.0 L 450.0 495.0 Z M 388.0 495.0 L 389.0 518.0 L 392.0 517.0 L 395.0 502.0 L 408.0 518.0 L 412.0 517.0 L 412.0 495.0 L 408.0 496.0 L 407.0 511.0 L 401.0 505.0 L 393.0 495.0 Z M 358.0 496.0 L 348.0 517.0 L 352.0 517.0 L 353.0 514.0 L 355.0 512.0 L 367.0 512.0 L 369.0 514.0 L 370.0 517.0 L 374.0 517.0 L 364.0 496.0 Z M 361.0 499.0 L 363.0 501.0 L 366.0 508.0 L 356.0 508.0 L 359.0 501.0 Z M 313.0 496.0 L 314.0 514.0 L 313.0 516.0 L 314.0 518.0 L 317.0 517.0 L 318.0 508.0 L 323.0 508.0 L 325.0 509.0 L 332.0 518.0 L 335.0 517.0 L 330.0 510.0 L 330.0 508.0 L 333.0 506.0 L 335.0 502.0 L 334.0 498.0 L 332.0 496.0 L 330.0 495.0 Z M 317.0 499.0 L 319.0 497.0 L 327.0 497.0 L 330.0 499.0 L 330.0 504.0 L 326.0 506.0 L 319.0 506.0 L 317.0 504.0 Z M 274.0 495.0 L 274.0 512.0 L 275.0 514.0 L 278.0 517.0 L 281.0 518.0 L 290.0 518.0 L 292.0 517.0 L 296.0 513.0 L 297.0 509.0 L 296.0 495.0 L 293.0 495.0 L 293.0 510.0 L 289.0 515.0 L 282.0 515.0 L 278.0 512.0 L 277.0 510.0 L 277.0 495.0 Z M 244.0 496.0 L 234.0 518.0 L 238.0 517.0 L 239.0 514.0 L 241.0 512.0 L 253.0 512.0 L 255.0 514.0 L 256.0 517.0 L 260.0 517.0 L 250.0 496.0 Z M 247.0 499.0 L 249.0 501.0 L 252.0 508.0 L 242.0 507.0 L 245.0 501.0 Z M 200.0 495.0 L 200.0 497.0 L 202.0 498.0 L 208.0 497.0 L 210.0 499.0 L 210.0 518.0 L 213.0 518.0 L 214.0 498.0 L 223.0 497.0 L 223.0 495.0 Z M 131.0 495.0 L 131.0 518.0 L 150.0 518.0 L 150.0 515.0 L 134.0 514.0 L 134.0 509.0 L 136.0 507.0 L 147.0 507.0 L 147.0 505.0 L 136.0 505.0 L 134.0 503.0 L 135.0 498.0 L 139.0 497.0 L 148.0 498.0 L 150.0 496.0 Z M 93.0 495.0 L 94.0 518.0 L 97.0 517.0 L 98.0 508.0 L 104.0 508.0 L 107.0 511.0 L 110.0 517.0 L 115.0 517.0 L 113.0 515.0 L 110.0 507.0 L 114.0 504.0 L 114.0 499.0 L 113.0 497.0 L 110.0 495.0 Z M 97.0 499.0 L 99.0 497.0 L 106.0 497.0 L 110.0 500.0 L 110.0 503.0 L 106.0 506.0 L 97.0 505.0 Z M 169.0 495.0 L 166.0 498.0 L 165.0 501.0 L 167.0 505.0 L 176.0 508.0 L 180.0 508.0 L 183.0 511.0 L 182.0 514.0 L 180.0 515.0 L 172.0 515.0 L 168.0 512.0 L 165.0 514.0 L 167.0 516.0 L 171.0 518.0 L 181.0 518.0 L 183.0 517.0 L 186.0 514.0 L 187.0 511.0 L 186.0 508.0 L 184.0 506.0 L 181.0 505.0 L 172.0 504.0 L 169.0 500.0 L 172.0 497.0 L 179.0 497.0 L 185.0 499.0 L 185.0 497.0 L 182.0 495.0 L 178.0 494.0 L 173.0 494.0 Z" fill="#F5F2EB" fill-rule="evenodd" filter="url(#glow)" />
</svg>